# Blender v3.4.1 OBJ File: 'Atmosphere File.blend'
# www.blender.org
mtllib Atmosphere.mtl
o Cube
v 3.126719 1.124589 -3.112923
v 3.130636 1.124589 -3.109028
v 3.128678 1.124589 -3.112401
v 3.130112 1.124589 -3.110975
v 3.130636 13.283985 -3.109028
v 3.126719 13.283985 -3.112923
v 3.130112 13.283985 -3.110975
v 3.128678 13.283985 -3.112401
v -3.126719 1.124589 -3.112923
v -3.130636 1.124589 -3.109028
v -3.128678 1.124589 -3.112401
v -3.130112 1.124589 -3.110975
v -3.130636 13.283985 -3.109028
v -3.126719 13.283985 -3.112923
v -3.130112 13.283985 -3.110975
v -3.128678 13.283985 -3.112401
v 3.126719 1.124589 3.112923
v 3.130636 1.124589 3.109028
v 3.128678 1.124589 3.112401
v 3.130112 1.124589 3.110975
v 3.130636 13.283985 3.109028
v 3.126719 13.283985 3.112923
v 3.130112 13.283985 3.110975
v 3.128678 13.283985 3.112401
v -3.126719 1.124589 3.112923
v -3.130636 1.124589 3.109028
v -3.128678 1.124589 3.112401
v -3.130112 1.124589 3.110975
v -3.130636 13.283985 3.109028
v -3.126719 13.283985 3.112923
v -3.130112 13.283985 3.110975
v -3.128678 13.283985 3.112401
vt 0.000000 0.751674
vt 0.000000 0.751190
vt 0.484653 0.751189
vt 0.484653 0.751674
vt 0.000001 0.750705
vt 0.484653 0.750705
vt 0.000001 0.750221
vt 0.484653 0.750220
vt 0.000001 0.499516
vt 0.484653 0.499515
vt 0.484653 0.499999
vt 0.000001 0.500000
vt 0.484653 0.500484
vt 0.000001 0.500485
vt 0.484653 0.500969
vt 0.000001 0.500969
vt 0.000001 0.000970
vt 0.484653 0.000969
vt 0.484653 0.250220
vt 0.000002 0.250221
vt 0.484653 0.999515
vt 0.000000 0.999515
vt 0.484653 0.999999
vt 0.000000 1.000000
vt 0.000001 0.000001
vt 0.484653 0.000000
vt 0.484653 0.000485
vt 0.000001 0.000485
vt 0.484653 0.251674
vt 0.000000 0.251675
vt 0.000001 0.251190
vt 0.484653 0.251189
vt 0.000001 0.250705
vt 0.484653 0.250705
vt 0.733139 0.250529
vt 0.733038 0.250635
vt 0.484900 0.250387
vt 0.484776 0.250354
vt 0.484687 0.250263
vt 0.484653 0.250139
vt 0.484653 0.000497
vt 0.484674 0.000248
vt 0.484709 0.000106
vt 0.484809 0.000000
vt 0.732946 0.000248
vt 0.733070 0.000281
vt 0.733161 0.000372
vt 0.733193 0.000497
vt 0.733193 0.250138
vt 0.733172 0.250387
vn -0.9656 0.0000 0.2601
vn -0.7051 0.0000 0.7092
vn -0.2574 0.0000 0.9663
vn 0.9656 0.0000 0.2601
vn 0.7051 0.0000 0.7092
vn 0.2574 0.0000 0.9663
vn 0.0000 0.0000 -1.0000
vn -1.0000 0.0000 0.0000
vn -0.9656 0.0000 -0.2601
vn -0.7051 0.0000 -0.7092
vn -0.2574 0.0000 -0.9663
vn 1.0000 0.0000 0.0000
vn 0.9656 0.0000 -0.2601
vn 0.7051 0.0000 -0.7092
vn 0.2574 0.0000 -0.9663
vn 0.0000 0.0000 1.0000
vn 0.0000 -1.0000 -0.0000
usemtl Atmosphere
s off
f 5/1/1 7/2/1 4/3/1 2/4/1
f 7/2/2 8/5/2 3/6/2 4/3/2
f 8/5/3 6/7/3 1/8/3 3/6/3
f 13/9/4 10/10/4 12/11/4 15/12/4
f 15/12/5 12/11/5 11/13/5 16/14/5
f 16/14/6 11/13/6 9/15/6 14/16/6
f 22/17/7 17/18/7 25/19/7 30/20/7
f 18/21/8 21/22/8 5/1/8 2/4/8
f 21/22/9 18/21/9 20/23/9 23/24/9
f 23/25/10 20/26/10 19/27/10 24/28/10
f 24/28/11 19/27/11 17/18/11 22/17/11
f 26/29/12 10/10/12 13/9/12 29/30/12
f 29/30/13 31/31/13 28/32/13 26/29/13
f 31/31/14 32/33/14 27/34/14 28/32/14
f 32/33/15 30/20/15 25/19/15 27/34/15
f 1/8/16 6/7/16 14/16/16 9/15/16
f 7/35/17 5/36/17 21/37/17 23/38/17 24/39/17 22/40/17 30/41/17 32/42/17 31/43/17 29/44/17 13/45/17 15/46/17 16/47/17 14/48/17 6/49/17 8/50/17
